# xmcd
#
# Track frame offsets:
#   150
#   25987
#   86761
#   103769
#   119819
#   139463
#   157070
#   171277
#   183091
#   201630
#   215373
#   226232
#   242389
#   251626
#   258797
#   268719
#   276305
#   289499
#   300035
#   312682
#   321072
#   337494
#   347120
#
# Disc length: 4778 seconds
#
# Revision: 0
# Processed by: cddbd v1.5.2PL0 Copyright (c) Steve Scherf et al.
# Submitted via: uFREEDB ActiveX Control 1.5
#
DISCID=6f12a817
DTITLE=scort som - scort som
DYEAR=1900
DGENRE=Blues
TTITLE0=scort som1
TTITLE1=scort som2
TTITLE2=scort som3
TTITLE3=scort som4
TTITLE4=scort som5
TTITLE5=scort som6
TTITLE6=scort som7
TTITLE7=scort som8
TTITLE8=scort som9
TTITLE9=scort som10
TTITLE10=scort som11
TTITLE11=scort som12
TTITLE12=scort som13
TTITLE13=scort som14
TTITLE14=scort som15
TTITLE15=scort som16
TTITLE16=scort som17
TTITLE17=scort som18
TTITLE18=scort som19
TTITLE19=scort som20
TTITLE20=scort som21
TTITLE21=scort som22
TTITLE22=scort som23
EXTD=
EXTT0=
EXTT1=
EXTT2=
EXTT3=
EXTT4=
EXTT5=
EXTT6=
EXTT7=
EXTT8=
EXTT9=
EXTT10=
EXTT11=
EXTT12=
EXTT13=
EXTT14=
EXTT15=
EXTT16=
EXTT17=
EXTT18=
EXTT19=
EXTT20=
EXTT21=
EXTT22=
PLAYORDER=
